<mxfile host="Electron" modified="2024-04-16T07:39:00.671Z" agent="Mozilla/5.0 (Windows NT 10.0; Win64; x64) AppleWebKit/537.36 (KHTML, like Gecko) draw.io/24.2.5 Chrome/120.0.6099.109 Electron/28.1.0 Safari/537.36" etag="XfbVLUuRrE71qT9Vv-d8" version="24.2.5" type="device">
  <diagram name="Page-1" id="2YBvvXClWsGukQMizWep">
    <mxGraphModel dx="1456" dy="727" grid="1" gridSize="10" guides="1" tooltips="1" connect="1" arrows="1" fold="1" page="1" pageScale="1" pageWidth="850" pageHeight="1100" math="0" shadow="0">
      <root>
        <mxCell id="0" />
        <mxCell id="1" parent="0" />
        <mxCell id="jNzdXAiE5_QmwUdnsHvJ-15" value="main.py" style="shape=umlLifeline;perimeter=lifelinePerimeter;whiteSpace=wrap;html=1;container=0;dropTarget=0;collapsible=0;recursiveResize=0;outlineConnect=0;portConstraint=eastwest;newEdgeStyle={&quot;edgeStyle&quot;:&quot;elbowEdgeStyle&quot;,&quot;elbow&quot;:&quot;vertical&quot;,&quot;curved&quot;:0,&quot;rounded&quot;:0};" parent="1" vertex="1">
          <mxGeometry x="170" y="70" width="100" height="610" as="geometry" />
        </mxCell>
        <mxCell id="jNzdXAiE5_QmwUdnsHvJ-17" value="Database" style="shape=umlLifeline;perimeter=lifelinePerimeter;whiteSpace=wrap;html=1;container=0;dropTarget=0;collapsible=0;recursiveResize=0;outlineConnect=0;portConstraint=eastwest;newEdgeStyle={&quot;edgeStyle&quot;:&quot;elbowEdgeStyle&quot;,&quot;elbow&quot;:&quot;vertical&quot;,&quot;curved&quot;:0,&quot;rounded&quot;:0};" parent="1" vertex="1">
          <mxGeometry x="580" y="70" width="100" height="610" as="geometry" />
        </mxCell>
        <mxCell id="jNzdXAiE5_QmwUdnsHvJ-20" value="Add Book" style="html=1;verticalAlign=bottom;endArrow=open;dashed=1;endSize=8;edgeStyle=elbowEdgeStyle;elbow=vertical;curved=0;rounded=0;" parent="1" target="jNzdXAiE5_QmwUdnsHvJ-21" edge="1">
          <mxGeometry x="0.0723" relative="1" as="geometry">
            <mxPoint x="419.5" y="160" as="targetPoint" />
            <Array as="points">
              <mxPoint x="380" y="130" />
              <mxPoint x="400" y="145" />
            </Array>
            <mxPoint x="220" y="145" as="sourcePoint" />
            <mxPoint as="offset" />
          </mxGeometry>
        </mxCell>
        <mxCell id="jNzdXAiE5_QmwUdnsHvJ-21" value="Library" style="shape=umlLifeline;perimeter=lifelinePerimeter;whiteSpace=wrap;html=1;container=0;dropTarget=0;collapsible=0;recursiveResize=0;outlineConnect=0;portConstraint=eastwest;newEdgeStyle={&quot;edgeStyle&quot;:&quot;elbowEdgeStyle&quot;,&quot;elbow&quot;:&quot;vertical&quot;,&quot;curved&quot;:0,&quot;rounded&quot;:0};" parent="1" vertex="1">
          <mxGeometry x="370" y="70" width="100" height="600" as="geometry" />
        </mxCell>
        <mxCell id="jNzdXAiE5_QmwUdnsHvJ-22" value="Add Book" style="html=1;verticalAlign=bottom;endArrow=open;dashed=1;endSize=8;edgeStyle=elbowEdgeStyle;elbow=vertical;curved=0;rounded=0;" parent="1" edge="1">
          <mxGeometry x="0.0934" relative="1" as="geometry">
            <mxPoint x="629.5" y="160" as="targetPoint" />
            <Array as="points">
              <mxPoint x="490" y="160" />
              <mxPoint x="652.42" y="190" />
            </Array>
            <mxPoint x="420" y="170" as="sourcePoint" />
            <mxPoint as="offset" />
          </mxGeometry>
        </mxCell>
        <mxCell id="jNzdXAiE5_QmwUdnsHvJ-32" value="" style="html=1;verticalAlign=bottom;endArrow=open;dashed=1;endSize=8;edgeStyle=elbowEdgeStyle;elbow=vertical;curved=0;rounded=0;" parent="1" edge="1">
          <mxGeometry x="0.1" relative="1" as="geometry">
            <mxPoint x="420.25" y="189.99999999999997" as="targetPoint" />
            <Array as="points">
              <mxPoint x="490.25" y="190.34" />
              <mxPoint x="590.25" y="189.99999999999997" />
              <mxPoint x="507.75" y="239.99999999999997" />
            </Array>
            <mxPoint x="629.75" y="190.34" as="sourcePoint" />
            <mxPoint as="offset" />
          </mxGeometry>
        </mxCell>
        <mxCell id="jNzdXAiE5_QmwUdnsHvJ-33" value="" style="html=1;verticalAlign=bottom;endArrow=open;dashed=1;endSize=8;edgeStyle=elbowEdgeStyle;elbow=vertical;curved=0;rounded=0;" parent="1" edge="1">
          <mxGeometry x="0.1" relative="1" as="geometry">
            <mxPoint x="419.81034482758605" y="370" as="targetPoint" />
            <Array as="points">
              <mxPoint x="595.25" y="370" />
              <mxPoint x="512.75" y="420" />
            </Array>
            <mxPoint x="634.75" y="370" as="sourcePoint" />
            <mxPoint as="offset" />
          </mxGeometry>
        </mxCell>
        <mxCell id="jNzdXAiE5_QmwUdnsHvJ-34" value="" style="html=1;verticalAlign=bottom;endArrow=open;dashed=1;endSize=8;edgeStyle=elbowEdgeStyle;elbow=vertical;curved=0;rounded=0;" parent="1" target="jNzdXAiE5_QmwUdnsHvJ-15" edge="1">
          <mxGeometry x="0.1" relative="1" as="geometry">
            <mxPoint x="420" y="230" as="targetPoint" />
            <Array as="points">
              <mxPoint x="400" y="250" />
              <mxPoint x="590" y="230" />
              <mxPoint x="507.5" y="280" />
            </Array>
            <mxPoint x="630" y="230" as="sourcePoint" />
            <mxPoint as="offset" />
          </mxGeometry>
        </mxCell>
        <mxCell id="jNzdXAiE5_QmwUdnsHvJ-35" value="" style="html=1;verticalAlign=bottom;endArrow=open;dashed=1;endSize=8;edgeStyle=elbowEdgeStyle;elbow=vertical;curved=0;rounded=0;" parent="1" edge="1">
          <mxGeometry x="0.1" relative="1" as="geometry">
            <mxPoint x="420.25" y="450" as="targetPoint" />
            <Array as="points">
              <mxPoint x="480.25" y="450" />
              <mxPoint x="590.25" y="450" />
              <mxPoint x="507.75" y="500" />
            </Array>
            <mxPoint x="630" y="450" as="sourcePoint" />
            <mxPoint as="offset" />
          </mxGeometry>
        </mxCell>
        <mxCell id="jNzdXAiE5_QmwUdnsHvJ-36" value="" style="html=1;verticalAlign=bottom;endArrow=open;dashed=1;endSize=8;edgeStyle=elbowEdgeStyle;elbow=vertical;curved=0;rounded=0;" parent="1" edge="1">
          <mxGeometry x="0.1" relative="1" as="geometry">
            <mxPoint x="214.90034482758605" y="480" as="targetPoint" />
            <Array as="points">
              <mxPoint x="585.0899999999999" y="480" />
              <mxPoint x="502.59" y="530" />
            </Array>
            <mxPoint x="625.0899999999999" y="480" as="sourcePoint" />
            <mxPoint as="offset" />
          </mxGeometry>
        </mxCell>
        <mxCell id="jNzdXAiE5_QmwUdnsHvJ-38" value="" style="html=1;verticalAlign=bottom;endArrow=open;dashed=1;endSize=8;edgeStyle=elbowEdgeStyle;elbow=vertical;curved=0;rounded=0;" parent="1" source="jNzdXAiE5_QmwUdnsHvJ-15" target="jNzdXAiE5_QmwUdnsHvJ-17" edge="1">
          <mxGeometry x="0.1" relative="1" as="geometry">
            <mxPoint x="625" y="210" as="targetPoint" />
            <Array as="points">
              <mxPoint x="390" y="220" />
              <mxPoint x="595" y="210" />
              <mxPoint x="512.5" y="260" />
            </Array>
            <mxPoint x="425" y="210" as="sourcePoint" />
            <mxPoint as="offset" />
          </mxGeometry>
        </mxCell>
        <mxCell id="jNzdXAiE5_QmwUdnsHvJ-48" value="" style="html=1;verticalAlign=bottom;endArrow=open;dashed=1;endSize=8;edgeStyle=elbowEdgeStyle;elbow=vertical;curved=0;rounded=0;" parent="1" edge="1">
          <mxGeometry x="0.1" relative="1" as="geometry">
            <mxPoint x="625" y="420" as="targetPoint" />
            <Array as="points">
              <mxPoint x="590" y="420" />
              <mxPoint x="507.5" y="470" />
            </Array>
            <mxPoint x="420" y="420" as="sourcePoint" />
            <mxPoint as="offset" />
          </mxGeometry>
        </mxCell>
        <mxCell id="jNzdXAiE5_QmwUdnsHvJ-49" value="Set borrowed" style="edgeLabel;html=1;align=center;verticalAlign=middle;resizable=0;points=[];" parent="jNzdXAiE5_QmwUdnsHvJ-48" vertex="1" connectable="0">
          <mxGeometry x="0.1099" y="-1" relative="1" as="geometry">
            <mxPoint x="-4" y="-21" as="offset" />
          </mxGeometry>
        </mxCell>
        <mxCell id="jNzdXAiE5_QmwUdnsHvJ-52" value="" style="html=1;verticalAlign=bottom;endArrow=open;dashed=1;endSize=8;edgeStyle=elbowEdgeStyle;elbow=vertical;curved=0;rounded=0;" parent="1" edge="1">
          <mxGeometry x="0.1" relative="1" as="geometry">
            <mxPoint x="220" y="150" as="targetPoint" />
            <Array as="points">
              <mxPoint x="290" y="150.34" />
              <mxPoint x="390" y="150" />
              <mxPoint x="307.5" y="200" />
            </Array>
            <mxPoint x="420" y="150" as="sourcePoint" />
            <mxPoint as="offset" />
          </mxGeometry>
        </mxCell>
        <mxCell id="jNzdXAiE5_QmwUdnsHvJ-53" value="Return" style="text;html=1;align=center;verticalAlign=middle;resizable=0;points=[];autosize=1;strokeColor=none;fillColor=none;" parent="1" vertex="1">
          <mxGeometry x="290" y="130" width="60" height="30" as="geometry" />
        </mxCell>
        <mxCell id="jNzdXAiE5_QmwUdnsHvJ-56" value="Return" style="text;html=1;align=center;verticalAlign=middle;resizable=0;points=[];autosize=1;strokeColor=none;fillColor=none;" parent="1" vertex="1">
          <mxGeometry x="500" y="160" width="60" height="30" as="geometry" />
        </mxCell>
        <mxCell id="jNzdXAiE5_QmwUdnsHvJ-57" value="Add member" style="text;html=1;align=center;verticalAlign=middle;resizable=0;points=[];autosize=1;strokeColor=none;fillColor=none;" parent="1" vertex="1">
          <mxGeometry x="275" y="188" width="90" height="30" as="geometry" />
        </mxCell>
        <mxCell id="jNzdXAiE5_QmwUdnsHvJ-58" value="Return" style="text;html=1;align=center;verticalAlign=middle;resizable=0;points=[];autosize=1;strokeColor=none;fillColor=none;" parent="1" vertex="1">
          <mxGeometry x="290" y="228" width="60" height="30" as="geometry" />
        </mxCell>
        <mxCell id="jNzdXAiE5_QmwUdnsHvJ-59" value="" style="html=1;verticalAlign=bottom;endArrow=open;dashed=1;endSize=8;edgeStyle=elbowEdgeStyle;elbow=vertical;curved=0;rounded=0;" parent="1" edge="1">
          <mxGeometry x="0.1" relative="1" as="geometry">
            <mxPoint x="627.5" y="299.66" as="targetPoint" />
            <Array as="points">
              <mxPoint x="382.5" y="299.66" />
              <mxPoint x="587.5" y="289.66" />
              <mxPoint x="505" y="339.66" />
            </Array>
            <mxPoint x="220" y="300" as="sourcePoint" />
            <mxPoint as="offset" />
          </mxGeometry>
        </mxCell>
        <mxCell id="jNzdXAiE5_QmwUdnsHvJ-60" value="Borrow book" style="text;html=1;align=center;verticalAlign=middle;resizable=0;points=[];autosize=1;strokeColor=none;fillColor=none;" parent="1" vertex="1">
          <mxGeometry x="275" y="270" width="90" height="30" as="geometry" />
        </mxCell>
        <mxCell id="jNzdXAiE5_QmwUdnsHvJ-61" value="" style="html=1;verticalAlign=bottom;endArrow=open;dashed=1;endSize=8;edgeStyle=elbowEdgeStyle;elbow=vertical;curved=0;rounded=0;" parent="1" target="jNzdXAiE5_QmwUdnsHvJ-17" edge="1">
          <mxGeometry x="0.1" relative="1" as="geometry">
            <mxPoint x="625" y="340" as="targetPoint" />
            <Array as="points">
              <mxPoint x="590" y="340" />
              <mxPoint x="507.5" y="390" />
            </Array>
            <mxPoint x="420" y="340" as="sourcePoint" />
            <mxPoint as="offset" />
          </mxGeometry>
        </mxCell>
        <mxCell id="jNzdXAiE5_QmwUdnsHvJ-62" value="Check book" style="edgeLabel;html=1;align=center;verticalAlign=middle;resizable=0;points=[];" parent="jNzdXAiE5_QmwUdnsHvJ-61" vertex="1" connectable="0">
          <mxGeometry x="0.1099" y="-1" relative="1" as="geometry">
            <mxPoint x="-9" y="-11" as="offset" />
          </mxGeometry>
        </mxCell>
        <mxCell id="jNzdXAiE5_QmwUdnsHvJ-63" value="Return" style="text;html=1;align=center;verticalAlign=middle;resizable=0;points=[];autosize=1;strokeColor=none;fillColor=none;" parent="1" vertex="1">
          <mxGeometry x="500" y="340" width="60" height="30" as="geometry" />
        </mxCell>
        <mxCell id="jNzdXAiE5_QmwUdnsHvJ-64" value="Return" style="text;html=1;align=center;verticalAlign=middle;resizable=0;points=[];autosize=1;strokeColor=none;fillColor=none;" parent="1" vertex="1">
          <mxGeometry x="500" y="420" width="60" height="30" as="geometry" />
        </mxCell>
        <mxCell id="jNzdXAiE5_QmwUdnsHvJ-65" value="Return" style="text;html=1;align=center;verticalAlign=middle;resizable=0;points=[];autosize=1;strokeColor=none;fillColor=none;" parent="1" vertex="1">
          <mxGeometry x="290" y="450" width="60" height="30" as="geometry" />
        </mxCell>
        <mxCell id="jNzdXAiE5_QmwUdnsHvJ-66" value="" style="html=1;verticalAlign=bottom;endArrow=open;dashed=1;endSize=8;edgeStyle=elbowEdgeStyle;elbow=vertical;curved=0;rounded=0;" parent="1" edge="1">
          <mxGeometry x="0.1" relative="1" as="geometry">
            <mxPoint x="627.5" y="517.31" as="targetPoint" />
            <Array as="points">
              <mxPoint x="382.5" y="517.31" />
              <mxPoint x="587.5" y="507.31" />
              <mxPoint x="505" y="557.31" />
            </Array>
            <mxPoint x="220" y="517.31" as="sourcePoint" />
            <mxPoint as="offset" />
          </mxGeometry>
        </mxCell>
        <mxCell id="jNzdXAiE5_QmwUdnsHvJ-67" value="Return Book" style="text;html=1;align=center;verticalAlign=middle;resizable=0;points=[];autosize=1;strokeColor=none;fillColor=none;" parent="1" vertex="1">
          <mxGeometry x="275" y="488" width="90" height="30" as="geometry" />
        </mxCell>
        <mxCell id="jNzdXAiE5_QmwUdnsHvJ-68" value="" style="html=1;verticalAlign=bottom;endArrow=open;dashed=1;endSize=8;edgeStyle=elbowEdgeStyle;elbow=vertical;curved=0;rounded=0;" parent="1" target="jNzdXAiE5_QmwUdnsHvJ-17" edge="1">
          <mxGeometry x="0.1" relative="1" as="geometry">
            <mxPoint x="625" y="608" as="targetPoint" />
            <Array as="points">
              <mxPoint x="590" y="608" />
              <mxPoint x="507.5" y="658" />
            </Array>
            <mxPoint x="420" y="608" as="sourcePoint" />
            <mxPoint as="offset" />
          </mxGeometry>
        </mxCell>
        <mxCell id="jNzdXAiE5_QmwUdnsHvJ-69" value="Set borrowed" style="edgeLabel;html=1;align=center;verticalAlign=middle;resizable=0;points=[];" parent="jNzdXAiE5_QmwUdnsHvJ-68" vertex="1" connectable="0">
          <mxGeometry x="0.1099" y="-1" relative="1" as="geometry">
            <mxPoint x="-4" y="-11" as="offset" />
          </mxGeometry>
        </mxCell>
        <mxCell id="jNzdXAiE5_QmwUdnsHvJ-70" value="" style="html=1;verticalAlign=bottom;endArrow=open;dashed=1;endSize=8;edgeStyle=elbowEdgeStyle;elbow=vertical;curved=0;rounded=0;" parent="1" edge="1">
          <mxGeometry x="0.1" relative="1" as="geometry">
            <mxPoint x="625" y="550" as="targetPoint" />
            <Array as="points">
              <mxPoint x="590" y="550" />
              <mxPoint x="507.5" y="600" />
            </Array>
            <mxPoint x="420" y="550" as="sourcePoint" />
            <mxPoint as="offset" />
          </mxGeometry>
        </mxCell>
        <mxCell id="jNzdXAiE5_QmwUdnsHvJ-71" value="Find Book" style="edgeLabel;html=1;align=center;verticalAlign=middle;resizable=0;points=[];" parent="jNzdXAiE5_QmwUdnsHvJ-70" vertex="1" connectable="0">
          <mxGeometry x="0.1099" y="-1" relative="1" as="geometry">
            <mxPoint x="-4" y="-11" as="offset" />
          </mxGeometry>
        </mxCell>
        <mxCell id="jNzdXAiE5_QmwUdnsHvJ-72" value="" style="html=1;verticalAlign=bottom;endArrow=open;dashed=1;endSize=8;edgeStyle=elbowEdgeStyle;elbow=vertical;curved=0;rounded=0;" parent="1" edge="1">
          <mxGeometry x="0.1" relative="1" as="geometry">
            <mxPoint x="420" y="580" as="targetPoint" />
            <Array as="points">
              <mxPoint x="480" y="580" />
              <mxPoint x="590" y="580" />
              <mxPoint x="507.5" y="630" />
            </Array>
            <mxPoint x="629.75" y="580" as="sourcePoint" />
            <mxPoint as="offset" />
          </mxGeometry>
        </mxCell>
        <mxCell id="jNzdXAiE5_QmwUdnsHvJ-73" value="" style="html=1;verticalAlign=bottom;endArrow=open;dashed=1;endSize=8;edgeStyle=elbowEdgeStyle;elbow=vertical;curved=0;rounded=0;" parent="1" edge="1">
          <mxGeometry x="0.1" relative="1" as="geometry">
            <mxPoint x="420" y="638" as="targetPoint" />
            <Array as="points">
              <mxPoint x="480" y="638" />
              <mxPoint x="590" y="638" />
              <mxPoint x="507.5" y="688" />
            </Array>
            <mxPoint x="629.75" y="638" as="sourcePoint" />
            <mxPoint as="offset" />
          </mxGeometry>
        </mxCell>
        <mxCell id="jNzdXAiE5_QmwUdnsHvJ-75" value="Return" style="text;html=1;align=center;verticalAlign=middle;resizable=0;points=[];autosize=1;strokeColor=none;fillColor=none;" parent="1" vertex="1">
          <mxGeometry x="500" y="608" width="60" height="30" as="geometry" />
        </mxCell>
        <mxCell id="jNzdXAiE5_QmwUdnsHvJ-76" value="Return" style="text;html=1;align=center;verticalAlign=middle;resizable=0;points=[];autosize=1;strokeColor=none;fillColor=none;" parent="1" vertex="1">
          <mxGeometry x="500" y="558" width="60" height="30" as="geometry" />
        </mxCell>
        <mxCell id="jNzdXAiE5_QmwUdnsHvJ-78" value="" style="html=1;verticalAlign=bottom;endArrow=open;dashed=1;endSize=8;edgeStyle=elbowEdgeStyle;elbow=vertical;curved=0;rounded=0;" parent="1" edge="1">
          <mxGeometry x="0.1" relative="1" as="geometry">
            <mxPoint x="220.00034482758605" y="670" as="targetPoint" />
            <Array as="points">
              <mxPoint x="590.19" y="670" />
              <mxPoint x="507.69" y="720" />
            </Array>
            <mxPoint x="630.19" y="670" as="sourcePoint" />
            <mxPoint as="offset" />
          </mxGeometry>
        </mxCell>
        <mxCell id="jNzdXAiE5_QmwUdnsHvJ-79" value="Return" style="text;html=1;align=center;verticalAlign=middle;resizable=0;points=[];autosize=1;strokeColor=none;fillColor=none;" parent="1" vertex="1">
          <mxGeometry x="290" y="640" width="60" height="30" as="geometry" />
        </mxCell>
      </root>
    </mxGraphModel>
  </diagram>
</mxfile>
